<?xml version="1.0" encoding="UTF-8" standalone="no"?>
<!-- Created with Inkscape (http://www.inkscape.org/) -->

<svg
   width="193.92052mm"
   height="193.92052mm"
   viewBox="0 0 193.92052 193.92052"
   version="1.1"
   id="svg5"
   xml:space="preserve"
   sodipodi:docname="6.svg"
   inkscape:version="1.2.2 (732a01da63, 2022-12-09)"
   xmlns:inkscape="http://www.inkscape.org/namespaces/inkscape"
   xmlns:sodipodi="http://sodipodi.sourceforge.net/DTD/sodipodi-0.dtd"
   xmlns="http://www.w3.org/2000/svg"
   xmlns:svg="http://www.w3.org/2000/svg"><sodipodi:namedview
     id="namedview7"
     pagecolor="#ffffff"
     bordercolor="#000000"
     borderopacity="0.25"
     inkscape:showpageshadow="2"
     inkscape:pageopacity="0.0"
     inkscape:pagecheckerboard="0"
     inkscape:deskcolor="#d1d1d1"
     inkscape:document-units="mm"
     showgrid="false"
     inkscape:zoom="0.914906"
     inkscape:cx="-51.917902"
     inkscape:cy="359.59978"
     inkscape:window-width="2560"
     inkscape:window-height="1377"
     inkscape:window-x="-8"
     inkscape:window-y="-8"
     inkscape:window-maximized="1"
     inkscape:current-layer="layer1" /><defs
     id="defs2" /><g
     inkscape:label="Layer 1"
     inkscape:groupmode="layer"
     id="layer1"
     transform="translate(-5.9140823,-62.230541)"><path
       id="rect985"
       style="fill:#fe0000;fill-opacity:1;stroke:#fe0000;stroke-width:1.81338;stroke-linecap:round;stroke-linejoin:round;stroke-dasharray:none;stroke-opacity:1;paint-order:normal"
       d="m 31.840951,63.137231 c -13.860977,0 -25.0201787,11.159208 -25.0201787,25.020179 v 142.0673 c 0,13.86094 11.1592017,25.01966 25.0201787,25.01966 H 173.90825 c 13.86094,0 25.01966,-11.15872 25.01966,-25.01966 V 88.15741 c 0,-13.860971 -11.15872,-25.020179 -25.01966,-25.020179 z M 53.926424,86.690316 A 23.552908,23.552908 0 0 1 77.479508,110.24288 23.552908,23.552908 0 0 1 53.926424,133.79597 23.552908,23.552908 0 0 1 30.37334,110.24288 23.552908,23.552908 0 0 1 53.926424,86.690316 Z m 97.895836,0 a 23.552908,23.552908 0 0 1 23.55308,23.552564 23.552908,23.552908 0 0 1 -23.55308,23.55309 23.552908,23.552908 0 0 1 -23.55309,-23.55309 23.552908,23.552908 0 0 1 23.55309,-23.552564 z M 53.926424,135.63823 A 23.552908,23.552908 0 0 1 77.479508,159.1908 23.552908,23.552908 0 0 1 53.926424,182.74388 23.552908,23.552908 0 0 1 30.37334,159.1908 23.552908,23.552908 0 0 1 53.926424,135.63823 Z m 97.895836,0 a 23.552908,23.552908 0 0 1 23.55308,23.55257 23.552908,23.552908 0 0 1 -23.55308,23.55308 23.552908,23.552908 0 0 1 -23.55309,-23.55308 23.552908,23.552908 0 0 1 23.55309,-23.55257 z M 53.926424,184.58615 A 23.552908,23.552908 0 0 1 77.479508,208.13872 23.552908,23.552908 0 0 1 53.926424,231.6918 23.552908,23.552908 0 0 1 30.37334,208.13872 23.552908,23.552908 0 0 1 53.926424,184.58615 Z m 97.895836,0 a 23.552908,23.552908 0 0 1 23.55308,23.55257 23.552908,23.552908 0 0 1 -23.55308,23.55308 23.552908,23.552908 0 0 1 -23.55309,-23.55308 23.552908,23.552908 0 0 1 23.55309,-23.55257 z" /></g></svg>
